<mxfile host="app.diagrams.net" modified="2024-04-14T21:05:55.539Z" agent="Mozilla/5.0 (Windows NT 10.0; Win64; x64) AppleWebKit/537.36 (KHTML, like Gecko) Chrome/121.0.0.0 Safari/537.36 OPR/107.0.0.0" version="24.2.3" etag="ALzFIwaFRiTZZUj8WDM0" type="github">
  <diagram name="PÃ¡gina-1" id="GFOVPBs5KzDKJa-naaWK">
    <mxGraphModel>
      <root>
        <mxCell id="0" />
        <mxCell id="1" parent="0" />
      </root>
    </mxGraphModel>
  </diagram>
</mxfile>
